<?xml version="1.0" standalone="no"?>
<!DOCTYPE svg PUBLIC "-//W3C//DTD SVG 20010904//EN"
 "http://www.w3.org/TR/2001/REC-SVG-20010904/DTD/svg10.dtd">
<svg version="1.0" xmlns="http://www.w3.org/2000/svg"
 width="3762.000000pt" height="3762.000000pt" viewBox="0 0 3762.000000 3762.000000"
 preserveAspectRatio="xMidYMid meet">
<metadata>
Created by potrace 1.14, written by Peter Selinger 2001-2017
</metadata>
<g transform="translate(0.000000,3762.000000) scale(0.100000,-0.100000)"
fill="#000000" stroke="none">
<path d="M650 33790 c-1 -70 -1 -29508 0 -29537 l0 -21 2860 0 2860 0 1 27 c0
14 1 1501 1 3304 l1 3278 151 149 c83 82 203 200 268 262 107 104 643 628 868
848 108 106 694 679 837 818 l92 90 81 -125 c44 -68 80 -128 80 -132 0 -4 9
-16 20 -26 11 -10 20 -22 20 -26 0 -5 35 -61 77 -126 43 -65 82 -127 88 -138
6 -11 38 -60 70 -110 89 -138 133 -207 236 -368 52 -81 131 -204 177 -275 45
-70 85 -134 89 -142 4 -8 9 -17 12 -20 3 -3 11 -13 16 -22 9 -17 279 -438 537
-841 107 -166 179 -279 218 -343 19 -31 274 -428 355 -554 106 -164 260 -404
270 -422 10 -18 339 -531 407 -636 21 -31 41 -64 45 -72 4 -8 11 -19 15 -25 8
-10 87 -132 223 -346 39 -61 91 -143 116 -182 25 -40 131 -205 234 -367 104
-162 216 -338 250 -390 33 -52 115 -179 180 -282 66 -104 157 -245 202 -315
78 -122 262 -411 348 -546 22 -35 63 -99 91 -143 44 -68 630 -983 732 -1144
86 -134 102 -160 154 -240 30 -47 68 -106 84 -132 16 -25 64 -100 106 -166
l78 -120 3529 0 3530 0 -23 36 c-40 64 -234 363 -401 620 -38 60 -122 188
-185 285 -63 98 -148 228 -188 290 -174 267 -358 549 -367 565 -6 9 -37 58
-69 107 -33 50 -132 203 -221 340 -89 138 -209 322 -266 410 -58 88 -128 196
-156 240 -29 44 -57 85 -62 92 -6 7 -11 15 -11 17 0 3 -55 90 -123 193 -68
104 -146 224 -174 268 -29 44 -56 85 -61 90 -5 6 -11 15 -13 20 -5 13 -44 74
-163 255 -52 80 -128 197 -169 260 -41 63 -114 176 -163 250 -49 74 -93 144
-99 155 -7 11 -41 64 -76 117 -77 117 -174 267 -519 798 -144 223 -301 464
-347 535 -47 72 -131 202 -189 290 -57 88 -108 167 -114 175 -5 8 -68 105
-139 215 -184 284 -263 405 -341 525 -171 262 -236 362 -245 380 -5 11 -13 20
-17 20 -5 0 -8 4 -8 9 0 6 -46 81 -103 168 -57 87 -139 212 -182 278 -43 66
-103 158 -134 205 -31 47 -60 93 -66 103 -5 9 -95 149 -200 309 -277 426 -319
490 -440 679 -60 94 -116 177 -122 184 -7 8 -13 16 -13 19 0 3 -57 92 -126
198 -69 106 -136 209 -149 228 -12 19 -57 89 -100 155 -43 66 -161 248 -263
405 -102 157 -224 346 -273 420 -116 179 -249 383 -362 557 -272 420 -360 555
-435 671 -45 70 -106 163 -134 207 -29 44 -99 152 -156 240 -57 88 -117 179
-133 203 -16 23 -29 45 -29 47 0 3 -16 28 -36 55 -40 56 -41 54 26 118 19 19
176 172 349 341 172 168 364 356 426 416 62 61 263 257 446 436 184 180 380
371 436 425 56 55 244 239 418 409 174 171 363 355 420 410 96 93 623 608 865
845 198 195 710 694 850 831 77 75 285 278 463 451 177 173 367 359 422 412
55 54 251 245 435 426 184 180 378 369 430 420 90 88 625 611 865 845 208 204
749 732 905 884 l155 150 -26 28 c-51 56 -118 129 -151 164 -18 19 -71 77
-118 129 -47 51 -98 107 -115 125 -16 17 -77 83 -134 146 -57 63 -114 123
-125 134 -12 12 -39 41 -60 65 -22 25 -67 74 -100 110 -34 36 -106 115 -161
174 -55 60 -113 124 -130 142 -16 18 -66 71 -110 119 -44 48 -91 99 -105 114
-39 42 -205 222 -235 256 -15 17 -55 60 -89 96 -33 36 -99 108 -146 159 -47
50 -96 104 -110 119 -14 15 -68 73 -120 131 -52 57 -120 131 -151 164 -64 68
-74 80 -214 232 -55 60 -109 118 -120 130 -11 11 -40 43 -64 70 -24 27 -72 78
-105 114 -34 36 -86 92 -116 125 -119 131 -246 269 -275 299 -16 18 -52 57
-80 87 -27 30 -98 106 -156 169 -58 63 -121 132 -139 153 -17 20 -36 37 -41
37 -9 0 -16 -7 -426 -406 -169 -166 -360 -352 -423 -414 -63 -62 -252 -246
-419 -409 -167 -163 -347 -339 -401 -391 -120 -117 -660 -644 -820 -800 -65
-63 -256 -250 -425 -415 -169 -165 -354 -345 -410 -400 -133 -130 -650 -635
-813 -793 -115 -113 -572 -558 -827 -807 -56 -55 -243 -237 -415 -405 -172
-168 -356 -348 -410 -400 -143 -140 -688 -672 -815 -795 -60 -59 -251 -245
-424 -414 -393 -384 -453 -443 -800 -781 -297 -289 -348 -339 -851 -830 -171
-168 -355 -347 -408 -399 -54 -51 -234 -228 -402 -391 -168 -164 -357 -348
-420 -410 -63 -62 -248 -242 -410 -400 -162 -158 -349 -341 -415 -405 -66 -64
-139 -134 -161 -157 l-42 -40 0 7869 c0 4327 -1 7877 -1 7888 -1 20 -7 20
-2861 20 l-2860 0 0 -55z"/>
<path d="M15140 33840 c0 -3 17 -23 38 -45 39 -43 209 -228 252 -275 14 -15
68 -74 120 -130 52 -57 106 -115 120 -130 47 -51 215 -234 235 -256 11 -12 60
-65 108 -117 48 -52 96 -104 105 -115 16 -18 160 -174 242 -262 30 -32 130
-141 230 -250 14 -15 68 -73 120 -130 52 -57 106 -115 120 -130 106 -116 218
-238 235 -256 11 -11 42 -45 69 -75 28 -30 79 -86 115 -125 36 -39 86 -93 111
-120 25 -27 103 -112 174 -189 71 -77 150 -162 175 -190 24 -27 74 -82 110
-120 36 -39 113 -122 171 -185 58 -63 130 -142 161 -175 30 -33 75 -82 100
-109 24 -27 55 -60 69 -75 14 -14 70 -75 125 -136 55 -60 109 -119 120 -131
11 -11 67 -72 125 -135 58 -63 130 -140 160 -173 30 -33 62 -67 70 -76 8 -9
58 -63 111 -121 53 -57 108 -117 123 -134 15 -16 46 -50 69 -75 90 -97 339
-368 542 -589 28 -30 64 -69 80 -86 17 -18 73 -79 125 -136 52 -57 104 -113
115 -125 11 -11 61 -65 110 -119 50 -55 104 -113 120 -130 17 -18 66 -71 109
-119 44 -48 91 -99 105 -114 32 -35 232 -251 246 -266 6 -6 60 -65 120 -131
61 -66 128 -140 150 -164 22 -24 54 -58 70 -76 17 -17 75 -81 130 -140 55 -60
126 -137 157 -170 31 -34 67 -72 78 -85 12 -14 63 -70 114 -125 52 -55 104
-112 117 -126 13 -15 67 -73 119 -129 52 -57 102 -111 110 -120 19 -22 198
-216 225 -244 11 -12 63 -68 115 -125 52 -58 109 -119 125 -136 17 -18 68 -74
115 -125 77 -86 169 -185 244 -264 15 -17 63 -69 105 -115 42 -46 90 -98 106
-116 17 -17 71 -76 120 -130 50 -54 106 -115 125 -136 19 -20 71 -76 115 -124
44 -48 95 -103 113 -122 26 -28 30 -38 21 -49 -13 -16 -145 -145 -235 -231
-34 -32 -157 -150 -274 -263 -117 -113 -245 -236 -285 -275 -41 -38 -164 -158
-276 -265 -308 -298 -322 -311 -539 -520 -111 -107 -230 -221 -263 -254 -34
-32 -159 -152 -277 -266 -118 -115 -244 -236 -280 -271 -36 -34 -161 -155
-279 -268 -117 -113 -237 -228 -265 -256 -29 -27 -155 -149 -280 -270 -125
-121 -253 -244 -284 -274 -32 -29 -156 -149 -277 -266 -121 -117 -248 -239
-281 -271 -34 -33 -158 -151 -274 -264 -237 -229 -261 -252 -555 -535 -114
-110 -238 -229 -275 -265 -74 -72 -423 -408 -540 -520 -41 -40 -178 -172 -304
-294 -126 -121 -251 -241 -277 -266 -25 -25 -138 -133 -249 -240 -111 -107
-235 -226 -275 -265 -177 -171 -513 -495 -565 -545 -102 -98 -470 -453 -545
-525 -155 -149 -211 -203 -224 -219 -14 -17 -21 -6 204 -351 51 -77 112 -171
137 -210 122 -188 441 -680 517 -795 31 -47 60 -93 66 -103 5 -10 68 -106 138
-215 335 -514 403 -620 518 -797 223 -344 318 -490 326 -500 4 -5 14 -22 22
-37 8 -16 18 -28 23 -28 4 0 8 -4 8 -10 0 -5 48 -83 106 -172 59 -90 126 -192
149 -228 136 -210 181 -280 238 -367 71 -111 149 -231 269 -415 46 -70 88
-135 94 -145 10 -16 18 -11 80 49 38 37 79 75 90 85 12 10 84 77 160 149 77
72 155 146 175 165 46 43 284 266 319 299 15 14 87 81 160 150 73 69 150 141
170 160 64 60 271 254 299 280 15 14 85 80 156 147 72 67 151 141 176 165 127
119 287 269 314 293 17 16 93 87 170 160 77 73 159 150 182 171 23 22 94 89
159 149 146 137 163 154 314 295 106 99 193 180 335 315 18 17 61 57 96 89 35
33 129 121 209 196 80 75 159 149 175 164 17 15 84 79 150 141 66 62 136 127
155 145 19 18 71 67 116 109 44 42 138 130 208 196 71 66 148 138 171 160 92
86 272 255 310 290 22 21 98 92 169 159 71 66 145 136 165 155 20 18 70 66
111 105 42 39 131 123 199 186 208 194 320 299 436 409 44 42 137 128 205 193
69 64 146 136 171 160 26 23 98 91 160 149 145 135 168 158 314 295 66 62 140
131 165 154 25 23 108 101 185 173 76 73 151 143 166 157 54 50 263 246 294
275 66 63 351 331 490 460 40 37 251 236 395 371 41 39 91 85 110 103 19 18
85 79 145 136 192 180 209 195 215 195 4 0 36 -32 71 -71 35 -39 73 -81 84
-93 37 -40 200 -218 229 -249 15 -17 60 -67 100 -110 39 -44 85 -94 101 -112
17 -18 50 -54 74 -81 25 -27 70 -76 100 -109 31 -33 94 -102 141 -154 47 -51
98 -108 114 -125 73 -80 111 -122 251 -276 83 -91 159 -174 170 -186 11 -11
56 -60 100 -109 44 -49 85 -93 90 -99 6 -6 61 -67 124 -136 63 -69 133 -145
155 -170 23 -25 91 -99 151 -165 61 -66 114 -125 120 -131 5 -6 47 -51 92
-100 45 -49 90 -99 100 -110 19 -22 146 -161 244 -268 31 -34 78 -85 105 -115
27 -30 63 -69 79 -86 54 -59 173 -189 195 -215 12 -14 43 -48 68 -75 26 -28
72 -77 102 -110 30 -33 100 -109 155 -169 55 -60 108 -118 118 -130 17 -20
123 -136 229 -250 25 -28 56 -62 67 -75 11 -13 62 -69 113 -124 51 -55 112
-121 134 -146 l42 -45 0 -6085 c0 -3347 1 -6100 1 -6118 l1 -31 2860 0 2860 0
0 232 c1 314 1 28884 1 29161 l-1 220 -2860 0 -2860 0 -1 -35 c0 -19 -1 -2048
-1 -4507 0 -2460 -3 -4473 -5 -4473 -2 0 -20 17 -39 38 -20 20 -88 91 -152
158 -144 148 -508 526 -592 614 -34 36 -155 161 -268 279 -114 118 -229 238
-257 267 -27 28 -131 136 -230 239 -99 103 -209 217 -243 253 -35 37 -112 117
-170 177 -92 94 -216 223 -598 621 -38 39 -155 161 -260 270 -105 110 -215
224 -244 254 -29 30 -142 147 -250 260 -109 113 -224 233 -257 266 -32 34
-146 153 -253 264 -107 112 -220 228 -250 260 -30 31 -141 147 -247 256 -105
109 -224 233 -263 274 -40 41 -154 160 -253 264 -100 103 -209 216 -241 250
-32 33 -149 155 -260 270 -111 115 -226 234 -256 266 -30 31 -145 151 -256
266 -111 115 -223 232 -250 260 -27 29 -135 141 -241 250 -105 110 -223 233
-263 274 -172 179 -416 432 -500 520 -267 277 -455 472 -507 526 -32 34 -146
153 -253 264 -107 111 -224 233 -260 270 -36 37 -151 157 -256 266 -106 110
-217 226 -249 259 l-57 60 -3624 0 c-1993 0 -3624 -2 -3624 -5z"/>
</g>
</svg>
